<svg xmlns="http://www.w3.org/2000/svg" viewBox="0 0 860 230" role="img" aria-labelledby="title desc"><title id="title">Most Used Languages</title><desc id="desc">Real language usage across public GitHub repositories.</desc><style>text{font-family:ui-monospace,SFMono-Regular,Consolas,monospace}.reveal{animation:reveal .42s ease-out both}@keyframes reveal{from{opacity:0;transform:translateY(4px)}to{opacity:1;transform:translateY(0)}}</style><rect width="860" height="230" rx="12" fill="#0d1117"/><rect x=".5" y=".5" width="859" height="229" rx="12" fill="none" stroke="#30363d"/><text x="24" y="32" fill="#c9d1d9" font-size="14">Most Used Languages</text><text x="836" y="32" text-anchor="end" fill="#8b949e" font-size="11">GitHub Linguist data</text><rect class="reveal" x="24.00" y="59" width="394.63" height="16" rx="3" fill="#f1e05a" style="animation-delay:0.00s"><title>JavaScript: 48.6%</title></rect><rect class="reveal" x="418.63" y="59" width="294.76" height="16" rx="3" fill="#3178c6" style="animation-delay:0.07s"><title>TypeScript: 36.3%</title></rect><rect class="reveal" x="713.39" y="59" width="82.82" height="16" rx="3" fill="#563d7c" style="animation-delay:0.14s"><title>CSS: 10.2%</title></rect><rect class="reveal" x="796.21" y="59" width="26.80" height="16" rx="3" fill="#e34c26" style="animation-delay:0.21s"><title>HTML: 3.3%</title></rect><rect class="reveal" x="823.01" y="59" width="9.74" height="16" rx="3" fill="#3572A5" style="animation-delay:0.28s"><title>Python: 1.2%</title></rect><rect class="reveal" x="832.75" y="59" width="4.06" height="16" rx="3" fill="#a91e50" style="animation-delay:0.35s"><title>EJS: 0.5%</title></rect><g class="reveal" style="animation-delay:0.18s"><circle cx="29" cy="109" r="5" fill="#f1e05a"/><text x="42" y="113" fill="#c9d1d9" font-size="11">JavaScript</text><text x="214" y="113" fill="#8b949e" font-size="11">48.6%</text></g><g class="reveal" style="animation-delay:0.24s"><circle cx="439" cy="109" r="5" fill="#3178c6"/><text x="452" y="113" fill="#c9d1d9" font-size="11">TypeScript</text><text x="624" y="113" fill="#8b949e" font-size="11">36.3%</text></g><g class="reveal" style="animation-delay:0.30s"><circle cx="29" cy="133" r="5" fill="#563d7c"/><text x="42" y="137" fill="#c9d1d9" font-size="11">CSS</text><text x="214" y="137" fill="#8b949e" font-size="11">10.2%</text></g><g class="reveal" style="animation-delay:0.36s"><circle cx="439" cy="133" r="5" fill="#e34c26"/><text x="452" y="137" fill="#c9d1d9" font-size="11">HTML</text><text x="624" y="137" fill="#8b949e" font-size="11">3.3%</text></g><g class="reveal" style="animation-delay:0.42s"><circle cx="29" cy="157" r="5" fill="#3572A5"/><text x="42" y="161" fill="#c9d1d9" font-size="11">Python</text><text x="214" y="161" fill="#8b949e" font-size="11">1.2%</text></g><g class="reveal" style="animation-delay:0.48s"><circle cx="439" cy="157" r="5" fill="#a91e50"/><text x="452" y="161" fill="#c9d1d9" font-size="11">EJS</text><text x="624" y="161" fill="#8b949e" font-size="11">0.5%</text></g></svg>